<svg version="1.1" id="Layer_1" xmlns="http://www.w3.org/2000/svg" xmlns:xlink="http://www.w3.org/1999/xlink" x="0px" y="0px"
	 width="100%" viewBox="301 494 655 268" enable-background="new 301 494 655 268" xml:space="preserve">
<path fill="#5F827F" opacity="1.000000" stroke="none" 
	d="
M705.999634,603.008606 
	C712.047424,610.276978 718.047974,617.585510 724.157593,624.801514 
	C729.394287,630.986572 734.566101,637.244385 740.112915,643.144470 
	C746.337341,649.765198 758.052002,648.527039 764.365112,640.842102 
	C782.019348,619.351685 799.622314,597.819092 817.278687,576.330383 
	C833.454529,556.643555 849.496643,536.842590 865.946289,517.386597 
	C874.531860,507.231903 886.027466,504.088562 898.919250,506.657166 
	C912.270691,509.317383 921.247620,517.597473 924.394531,530.584534 
	C927.059509,541.582458 925.057495,552.326294 917.405334,561.559509 
	C867.458374,621.825684 817.592285,682.158813 767.703674,742.473389 
	C759.287842,752.648010 743.871338,752.935974 735.375183,742.840027 
	C714.036621,717.483276 692.812866,692.029907 671.724548,666.313965 
	C674.107178,664.119263 676.237244,662.135010 678.521790,660.348328 
	C687.938293,652.983765 689.958862,641.992371 691.430237,631.379089 
	C692.063110,626.814148 691.448975,622.048584 693.275574,617.471680 
	C695.702515,611.390503 697.772034,605.166687 700.284546,599.140442 
	C701.759033,600.177124 702.944092,601.077515 704.129150,601.977844 
	C704.129150,601.977844 704.028259,601.994507 704.170288,602.155884 
	C704.573181,602.543030 704.834106,602.768799 705.094971,602.994629 
	C705.094971,602.994629 704.993042,603.001282 705.100464,603.048706 
	C705.207825,603.096191 705.602051,603.201294 705.602051,603.201294 
	C705.602051,603.201294 705.999634,603.008606 705.999634,603.008606 
z"/>
<path fill="#ACD3C9" opacity="1.000000" stroke="none" 
	d="
M401.263947,635.324219 
	C380.200897,609.993469 358.901001,584.854736 338.157318,559.265076 
	C324.139282,541.972229 331.108948,516.859314 351.832336,508.538513 
	C365.493164,503.053467 382.892517,506.562561 392.197327,518.537720 
	C396.585724,524.185547 401.318237,529.566040 406.036377,535.755066 
	C405.769531,541.427368 406.469971,545.397949 413.067474,543.974548 
	C413.760529,544.729309 414.453583,545.484070 414.944031,546.728149 
	C414.463867,548.601196 413.548096,550.896545 414.011871,551.221191 
	C417.103851,553.385864 420.490509,555.129517 423.781433,557.009949 
	C424.158630,557.354309 424.535828,557.698669 424.994507,558.697632 
	C426.087250,562.058960 425.716858,566.055298 430.538910,565.205505 
	C430.538910,565.205505 430.771332,565.266113 430.666321,565.738159 
	C430.493713,567.588562 430.426117,568.966980 430.326569,570.995911 
	C428.584045,570.033447 427.205566,569.648926 426.387115,568.752869 
	C423.303406,565.376648 420.553223,561.683960 417.341187,558.443848 
	C416.360535,557.454651 413.158051,556.850464 412.919617,557.245361 
	C411.614197,559.407104 410.914581,561.934692 410.006805,564.336548 
	C411.659698,564.079651 413.615204,564.296387 414.905640,563.472107 
	C418.078094,561.445679 419.927185,563.258606 419.639587,565.731262 
	C419.108398,570.298218 418.038666,575.040527 415.971985,579.085815 
	C415.003052,580.982483 411.242706,581.567627 408.651611,582.472900 
	C407.343109,582.930054 405.821198,582.776428 404.398560,582.898743 
	C404.900146,588.949036 408.500916,593.954712 413.470184,596.413879 
	C415.104065,597.222534 416.352966,598.809021 417.777954,600.039795 
	C416.557922,601.204407 415.329620,602.360474 414.119598,603.535400 
	C411.997589,605.595825 410.074371,607.918213 407.727356,609.676331 
	C404.226135,612.298889 405.622528,614.617126 406.990143,617.796021 
	C408.487610,621.276794 409.287659,625.308350 409.295685,629.102112 
	C409.302429,632.293091 409.877686,633.731506 413.125641,634.070923 
	C414.397766,634.203857 416.163971,634.961548 416.681641,635.963501 
	C418.271484,639.040588 415.109528,646.463257 411.864563,648.058411 
	C410.206360,646.157837 408.548157,644.257324 406.782410,641.677979 
	C405.946198,638.082520 405.106323,635.271973 401.263947,635.324219 
z"/>
<path fill="#8BADA8" opacity="1.000000" stroke="none" 
	d="
M623.990295,620.997131 
	C609.742188,638.061218 595.495361,655.126404 581.244507,672.188171 
	C579.436096,674.353271 577.606323,676.500488 575.143066,678.883484 
	C573.333679,680.742432 572.167664,682.373840 571.001648,684.005310 
	C570.590881,684.619202 570.180115,685.233093 569.155823,686.013428 
	C567.691589,687.442017 566.840942,688.704346 565.990234,689.966614 
	C565.558228,690.585876 565.126221,691.205139 564.074463,691.996216 
	C562.309082,693.794739 561.163452,695.421387 560.017761,697.047974 
	C560.018433,697.392273 559.883911,697.671509 559.033325,698.026062 
	C556.965942,698.699707 555.479370,699.232971 553.548157,699.925720 
	C553.076721,697.676697 552.453674,695.935059 552.393127,694.174133 
	C552.240967,689.745728 552.342834,685.308594 552.342834,680.498474 
	C557.652222,680.745483 557.508545,677.761841 557.468445,672.754150 
	C557.426575,667.527527 557.886353,662.529785 556.225098,657.392395 
	C555.703247,655.778687 557.346497,653.492004 557.922546,651.491394 
	C560.103638,643.916687 565.737427,636.749756 560.210999,628.242676 
	C559.527222,627.190125 560.656799,624.156250 561.835571,622.832520 
	C567.725891,616.217957 568.897278,606.128052 564.280212,598.586060 
	C561.776123,594.495850 560.991760,594.667603 557.929626,598.206360 
	C556.249146,600.148438 553.539368,601.199768 551.293701,602.652710 
	C566.447998,584.561157 581.578491,566.449585 596.776733,548.395020 
	C599.762512,544.848145 603.010010,541.521545 606.826965,538.145142 
	C612.703003,540.258850 616.725586,539.061768 618.976013,533.645996 
	C622.179688,539.854370 625.328552,545.575562 628.055359,551.491272 
	C628.797913,553.102234 628.455383,555.317139 628.268555,557.221252 
	C628.109802,558.839172 626.788940,560.575012 627.136230,561.971802 
	C628.997559,569.457214 625.780334,575.733154 623.191956,582.328247 
	C621.892151,585.640015 621.802551,589.451599 621.373840,593.061890 
	C621.273865,593.903809 621.789917,595.075378 622.415283,595.705322 
	C626.587585,599.907776 630.866455,604.004517 634.959167,608.431030 
	C632.521057,611.464539 630.234375,614.202576 627.947754,616.940613 
	C627.947754,616.940613 627.589905,617.248779 627.329346,616.945801 
	C625.781860,615.159729 624.597595,613.552063 623.103577,612.320129 
	C622.863708,612.122314 620.346619,613.715271 620.418823,614.285950 
	C620.666748,616.244690 621.517029,618.152100 622.322998,619.998230 
	C622.534058,620.481689 623.416321,620.672119 623.990295,620.997131 
M622.408325,574.466919 
	C621.980103,574.243591 621.551819,574.020325 621.123596,573.796997 
	C620.966003,574.209595 620.808411,574.622253 620.650818,575.034851 
	C621.174316,574.989136 621.697876,574.943420 622.408325,574.466919 
z"/>
<path fill="#94B6B0" opacity="1.000000" stroke="none" 
	d="
M550.991821,602.776245 
	C553.539368,601.199768 556.249146,600.148438 557.929626,598.206360 
	C560.991760,594.667603 561.776123,594.495850 564.280212,598.586060 
	C568.897278,606.128052 567.725891,616.217957 561.835571,622.832520 
	C560.656799,624.156250 559.527222,627.190125 560.210999,628.242676 
	C565.737427,636.749756 560.103638,643.916687 557.922546,651.491394 
	C557.346497,653.492004 555.703247,655.778687 556.225098,657.392395 
	C557.886353,662.529785 557.426575,667.527527 557.468445,672.754150 
	C557.508545,677.761841 557.652222,680.745483 552.342834,680.498474 
	C552.342834,685.308594 552.240967,689.745728 552.393127,694.174133 
	C552.453674,695.935059 553.076721,697.676697 553.548157,699.925720 
	C555.479370,699.232971 556.965942,698.699707 558.810059,698.111816 
	C546.033264,713.705811 532.899048,729.354553 519.294678,744.790161 
	C517.549316,740.049072 514.464661,738.730164 510.059998,739.466064 
	C504.509979,740.393372 503.319733,739.372681 504.119537,733.882202 
	C504.414429,731.857788 505.959961,730.045410 506.537720,728.022827 
	C506.979645,726.475830 507.520172,724.153870 506.750610,723.219788 
	C504.725555,720.761841 504.975586,718.941833 506.706390,716.578979 
	C507.511230,715.480347 508.111145,713.703247 507.842316,712.437988 
	C506.678223,706.958679 505.481171,701.443726 503.658081,696.161987 
	C502.400024,692.517151 502.158203,689.647888 503.777466,685.820740 
	C506.489807,679.410339 509.785736,672.942322 502.995850,665.928284 
	C498.169617,660.942749 498.823914,653.939575 503.032196,647.924316 
	C504.705994,647.949402 506.379761,647.974487 508.664734,647.866272 
	C509.538696,647.577454 509.770660,647.384827 509.971771,647.155029 
	C513.240967,644.749817 517.044006,642.818787 519.679993,639.851196 
	C527.814453,630.693298 535.506714,621.142395 543.363708,611.738281 
	C545.817200,608.801636 548.248413,605.846497 550.991821,602.776245 
z"/>
<path fill="#9DC2BB" opacity="1.000000" stroke="none" 
	d="
M502.857483,647.623840 
	C498.823914,653.939575 498.169617,660.942749 502.995850,665.928284 
	C509.785736,672.942322 506.489807,679.410339 503.777466,685.820740 
	C502.158203,689.647888 502.400024,692.517151 503.658081,696.161987 
	C505.481171,701.443726 506.678223,706.958679 507.842316,712.437988 
	C508.111145,713.703247 507.511230,715.480347 506.706390,716.578979 
	C504.975586,718.941833 504.725555,720.761841 506.750610,723.219788 
	C507.520172,724.153870 506.979645,726.475830 506.537720,728.022827 
	C505.959961,730.045410 504.414429,731.857788 504.119537,733.882202 
	C503.319733,739.372681 504.509979,740.393372 510.059998,739.466064 
	C514.464661,738.730164 517.549316,740.049072 518.982544,744.921326 
	C512.147522,752.239502 496.791992,752.060303 489.102997,742.173767 
	C478.169983,728.116028 466.458679,714.663574 455.148895,700.317017 
	C458.201599,694.917908 461.148407,690.349731 455.985748,684.889771 
	C454.942322,683.786194 455.184845,679.942749 456.310181,678.591003 
	C460.054901,674.092896 458.728455,670.788025 454.980591,667.457886 
	C451.890015,664.711792 451.756348,661.616455 453.673737,658.046021 
	C457.987366,650.013672 460.707520,641.742126 456.553986,632.702515 
	C456.314148,632.180542 456.522888,631.452332 456.522888,630.892700 
	C462.945496,628.919861 464.283417,626.912598 461.880554,623.138489 
	C458.194824,617.349426 460.279572,611.712402 466.867004,609.655518 
	C475.109924,619.597717 483.133514,629.735291 491.716919,639.374268 
	C494.649506,642.667603 498.987122,644.709656 502.857483,647.623840 
M503.430298,745.981323 
	C502.611908,745.990723 501.793549,746.000122 500.975189,746.009521 
	C501.089050,746.543518 501.202881,747.077576 501.316711,747.611572 
	C502.062683,747.257507 502.808655,746.903503 503.430298,745.981323 
z"/>
<path fill="#A7CDC4" opacity="1.000000" stroke="none" 
	d="
M466.711609,609.331970 
	C460.279572,611.712402 458.194824,617.349426 461.880554,623.138489 
	C464.283417,626.912598 462.945496,628.919861 456.522888,630.892700 
	C456.522888,631.452332 456.314148,632.180542 456.553986,632.702515 
	C460.707520,641.742126 457.987366,650.013672 453.673737,658.046021 
	C451.756348,661.616455 451.890015,664.711792 454.980591,667.457886 
	C458.728455,670.788025 460.054901,674.092896 456.310181,678.591003 
	C455.184845,679.942749 454.942322,683.786194 455.985748,684.889771 
	C461.148407,690.349731 458.201599,694.917908 455.040710,700.009338 
	C445.755554,689.411865 436.630341,678.500977 427.546417,667.555847 
	C422.355896,661.301758 417.232666,654.991821 411.971863,648.382690 
	C415.109528,646.463257 418.271484,639.040588 416.681641,635.963501 
	C416.163971,634.961548 414.397766,634.203857 413.125641,634.070923 
	C409.877686,633.731506 409.302429,632.293091 409.295685,629.102112 
	C409.287659,625.308350 408.487610,621.276794 406.990143,617.796021 
	C405.622528,614.617126 404.226135,612.298889 407.727356,609.676331 
	C410.074371,607.918213 411.997589,605.595825 414.119598,603.535400 
	C415.329620,602.360474 416.557922,601.204407 417.777954,600.039795 
	C416.352966,598.809021 415.104065,597.222534 413.470184,596.413879 
	C408.500916,593.954712 404.900146,588.949036 404.398560,582.898743 
	C405.821198,582.776428 407.343109,582.930054 408.651611,582.472900 
	C411.242706,581.567627 415.003052,580.982483 415.971985,579.085815 
	C418.038666,575.040527 419.108398,570.298218 419.639587,565.731262 
	C419.927185,563.258606 418.078094,561.445679 414.905640,563.472107 
	C413.615204,564.296387 411.659698,564.079651 410.006805,564.336548 
	C410.914581,561.934692 411.614197,559.407104 412.919617,557.245361 
	C413.158051,556.850464 416.360535,557.454651 417.341187,558.443848 
	C420.553223,561.683960 423.303406,565.376648 426.387115,568.752869 
	C427.205566,569.648926 428.584045,570.033447 430.326569,570.995911 
	C430.426117,568.966980 430.493713,567.588562 430.674805,565.857910 
	C442.710938,580.006592 454.633575,594.507507 466.711609,609.331970 
z"/>
<path fill="#445B5A" opacity="1.000000" stroke="none" 
	d="
M628.300659,616.965271 
	C630.234375,614.202576 632.521057,611.464539 635.232849,608.240295 
	C641.235596,601.191467 646.730774,594.556458 652.409302,588.082336 
	C661.949646,577.205322 674.224121,576.345947 685.181274,585.762146 
	C690.203552,590.078064 695.062256,594.584290 699.995117,599.004150 
	C697.772034,605.166687 695.702515,611.390503 693.275574,617.471680 
	C691.448975,622.048584 692.063110,626.814148 691.430237,631.379089 
	C689.958862,641.992371 687.938293,652.983765 678.521790,660.348328 
	C676.237244,662.135010 674.107178,664.119263 671.559448,666.038452 
	C660.183899,653.043091 649.194824,639.987793 638.099731,627.023193 
	C635.116455,623.537170 631.811096,620.326843 628.300659,616.965271 
z"/>
<path fill="#83A4A0" opacity="1.000000" stroke="none" 
	d="
M700.284546,599.140442 
	C695.062256,594.584290 690.203552,590.078064 685.181274,585.762146 
	C674.224121,576.345947 661.949646,577.205322 652.409302,588.082336 
	C646.730774,594.556458 641.235596,601.191467 635.384338,607.944824 
	C630.866455,604.004517 626.587585,599.907776 622.415283,595.705322 
	C621.789917,595.075378 621.273865,593.903809 621.373840,593.061890 
	C621.802551,589.451599 621.892151,585.640015 623.191956,582.328247 
	C625.780334,575.733154 628.997559,569.457214 627.136230,561.971802 
	C626.788940,560.575012 628.109802,558.839172 628.268555,557.221252 
	C628.455383,555.317139 628.797913,553.102234 628.055359,551.491272 
	C625.328552,545.575562 622.179688,539.854370 618.976013,533.645996 
	C616.725586,539.061768 612.703003,540.258850 607.135864,538.029297 
	C618.156494,527.036926 642.390076,527.703979 653.493469,540.694702 
	C670.637573,560.752930 687.469604,581.078003 704.281555,601.633850 
	C702.944092,601.077515 701.759033,600.177124 700.284546,599.140442 
z"/>
<path fill="#83A4A0" opacity="1.000000" stroke="none" 
	d="
M624.265015,620.863892 
	C623.416321,620.672119 622.534058,620.481689 622.322998,619.998230 
	C621.517029,618.152100 620.666748,616.244690 620.418823,614.285950 
	C620.346619,613.715271 622.863708,612.122314 623.103577,612.320129 
	C624.597595,613.552063 625.781860,615.159729 627.115479,617.045898 
	C626.288025,618.542847 625.413879,619.636780 624.265015,620.863892 
z"/>
<path fill="#A7CDC4" opacity="1.000000" stroke="none" 
	d="
M423.657532,556.706421 
	C420.490509,555.129517 417.103851,553.385864 414.011871,551.221191 
	C413.548096,550.896545 414.463867,548.601196 415.057983,547.018433 
	C418.094208,550.013855 420.813934,553.208435 423.657532,556.706421 
z"/>
<path fill="#A7CDC4" opacity="1.000000" stroke="none" 
	d="
M412.958496,543.656189 
	C406.469971,545.397949 405.769531,541.427368 406.151459,536.063477 
	C408.366486,538.235596 410.608002,540.786682 412.958496,543.656189 
z"/>
<path fill="#A7CDC4" opacity="1.000000" stroke="none" 
	d="
M430.389404,564.922974 
	C425.716858,566.055298 426.087250,562.058960 425.076660,558.942139 
	C426.798187,560.568176 428.519043,562.604309 430.389404,564.922974 
z"/>
<path fill="#A7CDC4" opacity="1.000000" stroke="none" 
	d="
M401.422058,635.640625 
	C405.106323,635.271973 405.946198,638.082520 406.642822,641.403259 
	C404.933868,639.857239 403.257019,637.907166 401.422058,635.640625 
z"/>
<path fill="#94B6B0" opacity="1.000000" stroke="none" 
	d="
M560.300781,696.884644 
	C561.163452,695.421387 562.309082,693.794739 563.810425,692.111938 
	C562.972046,693.610962 561.777954,695.166077 560.300781,696.884644 
z"/>
<path fill="#94B6B0" opacity="1.000000" stroke="none" 
	d="
M571.283447,683.837280 
	C572.167664,682.373840 573.333679,680.742432 574.859009,679.036255 
	C574.000610,680.530762 572.782898,682.100037 571.283447,683.837280 
z"/>
<path fill="#94B6B0" opacity="1.000000" stroke="none" 
	d="
M566.269409,689.809204 
	C566.840942,688.704346 567.691589,687.442017 568.899109,686.131592 
	C568.353455,687.272949 567.450989,688.462341 566.269409,689.809204 
z"/>
<path fill="#9DC2BB" opacity="1.000000" stroke="none" 
	d="
M509.712769,647.140076 
	C509.770660,647.384827 509.538696,647.577454 509.082825,647.852417 
	C509.077728,647.689575 509.265717,647.407349 509.712769,647.140076 
z"/>
<path fill="#83A4A0" opacity="1.000000" stroke="none" 
	d="
M705.764404,602.812622 
	C705.999634,603.008606 705.602051,603.201294 705.602051,603.201294 
	C705.602051,603.201294 705.207825,603.096191 705.096863,602.997803 
	C705.166992,602.805176 705.348022,602.710938 705.764404,602.812622 
z"/>
<path fill="#83A4A0" opacity="1.000000" stroke="none" 
	d="
M705.147644,602.636108 
	C704.834106,602.768799 704.573181,602.543030 704.162476,602.105347 
	C704.408569,602.021484 704.804443,602.149536 705.147644,602.636108 
z"/>
<path fill="#83A4A0" opacity="1.000000" stroke="none" 
	d="
M622.314819,574.682251 
	C621.697876,574.943420 621.174316,574.989136 620.650818,575.034851 
	C620.808411,574.622253 620.966003,574.209595 621.123596,573.796997 
	C621.551819,574.020325 621.980103,574.243591 622.314819,574.682251 
z"/>
<path fill="#94B6B0" opacity="1.000000" stroke="none" 
	d="
M503.492462,746.265381 
	C502.808655,746.903503 502.062683,747.257507 501.316711,747.611572 
	C501.202881,747.077576 501.089050,746.543518 500.975159,746.009521 
	C501.793549,746.000122 502.611908,745.990723 503.492462,746.265381 
z"/>
</svg>